<mxfile host="app.diagrams.net" agent="Mozilla/5.0 (X11; Linux x86_64) AppleWebKit/537.36 (KHTML, like Gecko) Chrome/128.0.0.0 Safari/537.36" version="24.7.14" pages="4">
  <diagram name="1" id="GjtngkBoV4wVPHJIbkqo">
    <mxGraphModel grid="1" page="1" gridSize="10" guides="1" tooltips="1" connect="1" arrows="1" fold="1" pageScale="1" pageWidth="1920" pageHeight="1200" math="0" shadow="0">
      <root>
        <mxCell id="0" />
        <mxCell id="1" parent="0" />
        <mxCell id="Z3ldodx4NBDyWP8bfYVw-1" value="Diagram Heading" style="shape=umlFrame;whiteSpace=wrap;html=1;pointerEvents=0;recursiveResize=0;container=1;collapsible=0;width=160;" vertex="1" parent="1">
          <mxGeometry x="520" y="320" width="500" height="680" as="geometry" />
        </mxCell>
        <mxCell id="Z3ldodx4NBDyWP8bfYVw-2" value="Регистрация" style="ellipse;" vertex="1" parent="Z3ldodx4NBDyWP8bfYVw-1">
          <mxGeometry x="40" y="530" width="120" height="60" as="geometry" />
        </mxCell>
        <mxCell id="Z3ldodx4NBDyWP8bfYVw-3" value="Создание отзыва" style="ellipse;" vertex="1" parent="Z3ldodx4NBDyWP8bfYVw-1">
          <mxGeometry x="60" y="60" width="120" height="60" as="geometry" />
        </mxCell>
        <mxCell id="Z3ldodx4NBDyWP8bfYVw-4" value="Авторизация" style="ellipse;" vertex="1" parent="Z3ldodx4NBDyWP8bfYVw-1">
          <mxGeometry x="40" y="460" width="120" height="60" as="geometry" />
        </mxCell>
        <mxCell id="Z3ldodx4NBDyWP8bfYVw-5" style="rounded=0;orthogonalLoop=1;jettySize=auto;html=1;endArrow=block;endFill=0;" edge="1" parent="Z3ldodx4NBDyWP8bfYVw-1" source="Z3ldodx4NBDyWP8bfYVw-6" target="Z3ldodx4NBDyWP8bfYVw-3">
          <mxGeometry relative="1" as="geometry" />
        </mxCell>
        <mxCell id="Z3ldodx4NBDyWP8bfYVw-6" value="Выбор книги и рейтинга" style="ellipse;" vertex="1" parent="Z3ldodx4NBDyWP8bfYVw-1">
          <mxGeometry x="270" y="10" width="220" height="110" as="geometry" />
        </mxCell>
        <mxCell id="Z3ldodx4NBDyWP8bfYVw-7" value="Добавление&#xa;книг" style="ellipse;" vertex="1" parent="Z3ldodx4NBDyWP8bfYVw-1">
          <mxGeometry x="270" y="250" width="120" height="60" as="geometry" />
        </mxCell>
        <mxCell id="Z3ldodx4NBDyWP8bfYVw-24" value="Принятие или&#xa;отмена отзывов" style="ellipse;" vertex="1" parent="Z3ldodx4NBDyWP8bfYVw-1">
          <mxGeometry x="210" y="340" width="120" height="60" as="geometry" />
        </mxCell>
        <mxCell id="Z3ldodx4NBDyWP8bfYVw-9" value="Просмотр отзывов" style="ellipse;" vertex="1" parent="Z3ldodx4NBDyWP8bfYVw-1">
          <mxGeometry x="30" y="300" width="120" height="60" as="geometry" />
        </mxCell>
        <mxCell id="Z3ldodx4NBDyWP8bfYVw-18" style="rounded=0;orthogonalLoop=1;jettySize=auto;html=1;entryX=0;entryY=0.5;entryDx=0;entryDy=0;endArrow=none;endFill=0;" edge="1" parent="1" source="Z3ldodx4NBDyWP8bfYVw-20" target="Z3ldodx4NBDyWP8bfYVw-2">
          <mxGeometry relative="1" as="geometry" />
        </mxCell>
        <mxCell id="Z3ldodx4NBDyWP8bfYVw-19" style="rounded=0;orthogonalLoop=1;jettySize=auto;html=1;endArrow=none;endFill=0;" edge="1" parent="1" source="Z3ldodx4NBDyWP8bfYVw-20" target="Z3ldodx4NBDyWP8bfYVw-4">
          <mxGeometry relative="1" as="geometry" />
        </mxCell>
        <mxCell id="Z3ldodx4NBDyWP8bfYVw-20" value="Гость" style="shape=umlActor;verticalLabelPosition=bottom;verticalAlign=top;html=1;" vertex="1" parent="1">
          <mxGeometry x="430" y="780" width="30" height="60" as="geometry" />
        </mxCell>
        <mxCell id="Z3ldodx4NBDyWP8bfYVw-21" style="rounded=0;orthogonalLoop=1;jettySize=auto;html=1;endArrow=none;endFill=0;" edge="1" parent="1" source="Z3ldodx4NBDyWP8bfYVw-23" target="Z3ldodx4NBDyWP8bfYVw-4">
          <mxGeometry relative="1" as="geometry" />
        </mxCell>
        <mxCell id="Z3ldodx4NBDyWP8bfYVw-22" style="rounded=0;orthogonalLoop=1;jettySize=auto;html=1;endArrow=none;endFill=0;" edge="1" parent="1" source="Z3ldodx4NBDyWP8bfYVw-23" target="Z3ldodx4NBDyWP8bfYVw-7">
          <mxGeometry relative="1" as="geometry" />
        </mxCell>
        <mxCell id="Z3ldodx4NBDyWP8bfYVw-25" style="rounded=0;orthogonalLoop=1;jettySize=auto;html=1;endArrow=none;endFill=0;" edge="1" parent="1" source="Z3ldodx4NBDyWP8bfYVw-23" target="Z3ldodx4NBDyWP8bfYVw-24">
          <mxGeometry relative="1" as="geometry" />
        </mxCell>
        <mxCell id="Z3ldodx4NBDyWP8bfYVw-23" value="Админ" style="shape=umlActor;verticalLabelPosition=bottom;verticalAlign=top;html=1;" vertex="1" parent="1">
          <mxGeometry x="1070" y="660" width="30" height="60" as="geometry" />
        </mxCell>
        <mxCell id="Z3ldodx4NBDyWP8bfYVw-17" value="Пользователь" style="shape=umlActor;verticalLabelPosition=bottom;verticalAlign=top;html=1;" vertex="1" parent="1">
          <mxGeometry x="440" y="620" width="30" height="60" as="geometry" />
        </mxCell>
        <mxCell id="Z3ldodx4NBDyWP8bfYVw-16" style="rounded=0;orthogonalLoop=1;jettySize=auto;html=1;endArrow=none;endFill=0;" edge="1" parent="1" source="Z3ldodx4NBDyWP8bfYVw-17" target="Z3ldodx4NBDyWP8bfYVw-9">
          <mxGeometry relative="1" as="geometry" />
        </mxCell>
        <mxCell id="Z3ldodx4NBDyWP8bfYVw-14" style="rounded=0;orthogonalLoop=1;jettySize=auto;html=1;endArrow=none;endFill=0;" edge="1" parent="1" source="Z3ldodx4NBDyWP8bfYVw-17" target="Z3ldodx4NBDyWP8bfYVw-4">
          <mxGeometry relative="1" as="geometry" />
        </mxCell>
        <mxCell id="Z3ldodx4NBDyWP8bfYVw-15" style="rounded=0;orthogonalLoop=1;jettySize=auto;html=1;endArrow=none;endFill=0;" edge="1" parent="1" source="Z3ldodx4NBDyWP8bfYVw-17" target="Z3ldodx4NBDyWP8bfYVw-3">
          <mxGeometry relative="1" as="geometry" />
        </mxCell>
      </root>
    </mxGraphModel>
  </diagram>
  <diagram id="T83KT0pFPiEldxZ59J9l" name="2">
    <mxGraphModel grid="1" page="1" gridSize="10" guides="1" tooltips="1" connect="1" arrows="1" fold="1" pageScale="1" pageWidth="1920" pageHeight="1200" math="0" shadow="0">
      <root>
        <mxCell id="0" />
        <mxCell id="1" parent="0" />
        <mxCell id="u8pV7KjKoDz3oCQttia9-1" style="shape=partialRectangle;html=1;whiteSpace=wrap;collapsible=0;dropTarget=0;pointerEvents=0;top=1;left=1;bottom=1;right=1;points=[[0,0.5],[1,0.5]];portConstraint=eastwest;" vertex="1" parent="1">
          <mxGeometry x="230" y="700" width="800" height="170" as="geometry" />
        </mxCell>
        <mxCell id="u8pV7KjKoDz3oCQttia9-2" value="Гость" style="shape=partialRectangle;html=1;whiteSpace=wrap;connectable=0;fillColor=none;top=1;left=1;bottom=1;right=1;overflow=hidden;horizontal=0;" vertex="1" parent="u8pV7KjKoDz3oCQttia9-1">
          <mxGeometry width="33.68421052631579" height="170" as="geometry">
            <mxRectangle width="40" height="170" as="alternateBounds" />
          </mxGeometry>
        </mxCell>
        <mxCell id="u8pV7KjKoDz3oCQttia9-3" style="shape=partialRectangle;html=1;whiteSpace=wrap;connectable=0;fillColor=none;top=1;left=1;bottom=1;right=1;overflow=hidden;" vertex="1" parent="u8pV7KjKoDz3oCQttia9-1">
          <mxGeometry x="33.68421052631579" width="766.3157894736842" height="170" as="geometry">
            <mxRectangle width="910" height="170" as="alternateBounds" />
          </mxGeometry>
        </mxCell>
        <mxCell id="u8pV7KjKoDz3oCQttia9-4" value="s" style="shape=table;html=1;whiteSpace=wrap;startSize=20;container=1;collapsible=0;childLayout=tableLayout;fillColor=none;swimlaneFillColor=#ffffff;strokeColor=none;" vertex="1" parent="1">
          <mxGeometry x="220" y="205" width="1640" height="460" as="geometry" />
        </mxCell>
        <mxCell id="u8pV7KjKoDz3oCQttia9-5" value="" style="shape=partialRectangle;html=1;whiteSpace=wrap;collapsible=0;dropTarget=0;pointerEvents=0;fillColor=none;top=1;left=1;bottom=1;right=1;points=[[0,0.5],[1,0.5]];portConstraint=eastwest;" vertex="1" parent="u8pV7KjKoDz3oCQttia9-4">
          <mxGeometry y="20" width="1640" height="220" as="geometry" />
        </mxCell>
        <mxCell id="u8pV7KjKoDz3oCQttia9-6" value="Админ" style="shape=partialRectangle;html=1;whiteSpace=wrap;connectable=0;fillColor=none;top=1;left=1;bottom=1;right=1;overflow=hidden;horizontal=0;" vertex="1" parent="u8pV7KjKoDz3oCQttia9-5">
          <mxGeometry width="40" height="220" as="geometry">
            <mxRectangle width="40" height="220" as="alternateBounds" />
          </mxGeometry>
        </mxCell>
        <mxCell id="u8pV7KjKoDz3oCQttia9-7" value="" style="shape=partialRectangle;html=1;whiteSpace=wrap;connectable=0;fillColor=none;top=1;left=1;bottom=1;right=1;overflow=hidden;" vertex="1" parent="u8pV7KjKoDz3oCQttia9-5">
          <mxGeometry x="40" width="1600" height="220" as="geometry">
            <mxRectangle width="1600" height="220" as="alternateBounds" />
          </mxGeometry>
        </mxCell>
        <mxCell id="u8pV7KjKoDz3oCQttia9-8" value="" style="shape=partialRectangle;html=1;whiteSpace=wrap;collapsible=0;dropTarget=0;pointerEvents=0;fillColor=none;top=1;left=1;bottom=1;right=1;points=[[0,0.5],[1,0.5]];portConstraint=eastwest;" vertex="1" parent="u8pV7KjKoDz3oCQttia9-4">
          <mxGeometry y="240" width="1640" height="220" as="geometry" />
        </mxCell>
        <mxCell id="u8pV7KjKoDz3oCQttia9-9" value="Пользователь" style="shape=partialRectangle;html=1;whiteSpace=wrap;connectable=0;fillColor=none;top=1;left=1;bottom=1;right=1;overflow=hidden;horizontal=0;" vertex="1" parent="u8pV7KjKoDz3oCQttia9-8">
          <mxGeometry width="40" height="220" as="geometry">
            <mxRectangle width="40" height="220" as="alternateBounds" />
          </mxGeometry>
        </mxCell>
        <mxCell id="u8pV7KjKoDz3oCQttia9-10" value="" style="shape=partialRectangle;html=1;whiteSpace=wrap;connectable=0;fillColor=none;top=1;left=1;bottom=1;right=1;overflow=hidden;" vertex="1" parent="u8pV7KjKoDz3oCQttia9-8">
          <mxGeometry x="40" width="1600" height="220" as="geometry">
            <mxRectangle width="1600" height="220" as="alternateBounds" />
          </mxGeometry>
        </mxCell>
        <mxCell id="u8pV7KjKoDz3oCQttia9-11" style="edgeStyle=orthogonalEdgeStyle;rounded=0;orthogonalLoop=1;jettySize=auto;html=1;endArrow=open;endFill=0;" edge="1" parent="1" source="u8pV7KjKoDz3oCQttia9-12" target="u8pV7KjKoDz3oCQttia9-32">
          <mxGeometry relative="1" as="geometry" />
        </mxCell>
        <mxCell id="u8pV7KjKoDz3oCQttia9-12" value="" style="ellipse;fillColor=strokeColor;html=1;" vertex="1" parent="1">
          <mxGeometry x="290" y="550" width="30" height="30" as="geometry" />
        </mxCell>
        <mxCell id="u8pV7KjKoDz3oCQttia9-13" style="rounded=0;orthogonalLoop=1;jettySize=auto;html=1;endArrow=open;endFill=0;" edge="1" parent="1" source="u8pV7KjKoDz3oCQttia9-14" target="u8pV7KjKoDz3oCQttia9-22">
          <mxGeometry relative="1" as="geometry" />
        </mxCell>
        <mxCell id="u8pV7KjKoDz3oCQttia9-14" value="" style="ellipse;fillColor=strokeColor;html=1;" vertex="1" parent="1">
          <mxGeometry x="290" y="820" width="30" height="30" as="geometry" />
        </mxCell>
        <mxCell id="u8pV7KjKoDz3oCQttia9-15" value="" style="ellipse;html=1;shape=endState;fillColor=strokeColor;" vertex="1" parent="1">
          <mxGeometry x="970" y="820" width="30" height="30" as="geometry" />
        </mxCell>
        <mxCell id="u8pV7KjKoDz3oCQttia9-16" style="edgeStyle=orthogonalEdgeStyle;rounded=0;orthogonalLoop=1;jettySize=auto;html=1;endArrow=open;endFill=0;" edge="1" parent="1" source="u8pV7KjKoDz3oCQttia9-18" target="u8pV7KjKoDz3oCQttia9-24">
          <mxGeometry relative="1" as="geometry">
            <Array as="points">
              <mxPoint x="490" y="765" />
            </Array>
          </mxGeometry>
        </mxCell>
        <mxCell id="u8pV7KjKoDz3oCQttia9-17" value="Если пользователь не&lt;div&gt;&lt;div&gt;зарегистрирован&lt;/div&gt;&lt;/div&gt;" style="edgeLabel;html=1;align=center;verticalAlign=middle;resizable=0;points=[];" connectable="0" vertex="1" parent="u8pV7KjKoDz3oCQttia9-16">
          <mxGeometry x="0.0016" y="1" relative="1" as="geometry">
            <mxPoint x="25" y="-24" as="offset" />
          </mxGeometry>
        </mxCell>
        <mxCell id="u8pV7KjKoDz3oCQttia9-18" value="" style="rhombus;aspect=fixed;verticalAlign=middle;" vertex="1" parent="1">
          <mxGeometry x="480" y="825" width="20" height="20" as="geometry" />
        </mxCell>
        <mxCell id="u8pV7KjKoDz3oCQttia9-19" value="" style="endArrow=open;html=1;rounded=0;align=center;verticalAlign=bottom;labelBackgroundColor=none;exitX=1;exitY=0.5;exitDx=0;exitDy=0;endFill=0;" edge="1" parent="1" source="u8pV7KjKoDz3oCQttia9-22" target="u8pV7KjKoDz3oCQttia9-18">
          <mxGeometry relative="1" as="geometry">
            <mxPoint x="400" y="775" as="sourcePoint" />
          </mxGeometry>
        </mxCell>
        <mxCell id="u8pV7KjKoDz3oCQttia9-20" value="" style="endArrow=open;html=1;rounded=0;align=center;verticalAlign=bottom;labelBackgroundColor=none;entryX=0;entryY=0.5;entryDx=0;entryDy=0;edgeStyle=orthogonalEdgeStyle;endFill=0;" edge="1" parent="1" source="u8pV7KjKoDz3oCQttia9-18" target="u8pV7KjKoDz3oCQttia9-26">
          <mxGeometry relative="1" as="geometry">
            <mxPoint x="540" y="775" as="targetPoint" />
          </mxGeometry>
        </mxCell>
        <mxCell id="u8pV7KjKoDz3oCQttia9-21" value="Если&lt;div&gt;пользователь&lt;div&gt;зарегистрирован&lt;/div&gt;&lt;/div&gt;" style="edgeLabel;html=1;align=center;verticalAlign=middle;resizable=0;points=[];" connectable="0" vertex="1" parent="u8pV7KjKoDz3oCQttia9-20">
          <mxGeometry x="-0.4167" relative="1" as="geometry">
            <mxPoint x="60" y="-25" as="offset" />
          </mxGeometry>
        </mxCell>
        <mxCell id="u8pV7KjKoDz3oCQttia9-22" value="Войти&amp;nbsp;на сайт" style="html=1;align=center;verticalAlign=top;rounded=1;absoluteArcSize=1;arcSize=10;dashed=0;whiteSpace=wrap;" vertex="1" parent="1">
          <mxGeometry x="350" y="820" width="90" height="30" as="geometry" />
        </mxCell>
        <mxCell id="u8pV7KjKoDz3oCQttia9-23" style="edgeStyle=orthogonalEdgeStyle;rounded=0;orthogonalLoop=1;jettySize=auto;html=1;endArrow=open;endFill=0;" edge="1" parent="1" source="u8pV7KjKoDz3oCQttia9-24" target="u8pV7KjKoDz3oCQttia9-26">
          <mxGeometry relative="1" as="geometry" />
        </mxCell>
        <mxCell id="u8pV7KjKoDz3oCQttia9-24" value="Зарегистртроваться" style="html=1;align=center;verticalAlign=top;rounded=1;absoluteArcSize=1;arcSize=10;dashed=0;whiteSpace=wrap;" vertex="1" parent="1">
          <mxGeometry x="680" y="750" width="130" height="30" as="geometry" />
        </mxCell>
        <mxCell id="u8pV7KjKoDz3oCQttia9-25" style="edgeStyle=orthogonalEdgeStyle;rounded=0;orthogonalLoop=1;jettySize=auto;html=1;endArrow=open;endFill=0;" edge="1" parent="1" source="u8pV7KjKoDz3oCQttia9-26" target="u8pV7KjKoDz3oCQttia9-15">
          <mxGeometry relative="1" as="geometry" />
        </mxCell>
        <mxCell id="u8pV7KjKoDz3oCQttia9-26" value="Авторизироваться" style="html=1;align=center;verticalAlign=top;rounded=1;absoluteArcSize=1;arcSize=10;dashed=0;whiteSpace=wrap;" vertex="1" parent="1">
          <mxGeometry x="820" y="820" width="120" height="30" as="geometry" />
        </mxCell>
        <mxCell id="u8pV7KjKoDz3oCQttia9-27" style="edgeStyle=orthogonalEdgeStyle;rounded=0;orthogonalLoop=1;jettySize=auto;html=1;endArrow=open;endFill=0;" edge="1" parent="1" source="u8pV7KjKoDz3oCQttia9-28" target="u8pV7KjKoDz3oCQttia9-50">
          <mxGeometry relative="1" as="geometry">
            <mxPoint x="1360" y="528" as="targetPoint" />
          </mxGeometry>
        </mxCell>
        <mxCell id="u8pV7KjKoDz3oCQttia9-28" value="Посмотреть свой отзыв на странице книги" style="html=1;align=center;verticalAlign=top;rounded=1;absoluteArcSize=1;arcSize=10;dashed=0;whiteSpace=wrap;" vertex="1" parent="1">
          <mxGeometry x="1180" y="500" width="110" height="55" as="geometry" />
        </mxCell>
        <mxCell id="u8pV7KjKoDz3oCQttia9-29" style="edgeStyle=orthogonalEdgeStyle;rounded=0;orthogonalLoop=1;jettySize=auto;html=1;endArrow=open;endFill=0;" edge="1" parent="1" source="u8pV7KjKoDz3oCQttia9-30" target="u8pV7KjKoDz3oCQttia9-39">
          <mxGeometry relative="1" as="geometry" />
        </mxCell>
        <mxCell id="u8pV7KjKoDz3oCQttia9-30" value="Просмотреть книги" style="html=1;align=center;verticalAlign=top;rounded=1;absoluteArcSize=1;arcSize=10;dashed=0;whiteSpace=wrap;" vertex="1" parent="1">
          <mxGeometry x="560" y="500" width="100" height="40" as="geometry" />
        </mxCell>
        <mxCell id="u8pV7KjKoDz3oCQttia9-31" style="edgeStyle=orthogonalEdgeStyle;rounded=0;orthogonalLoop=1;jettySize=auto;html=1;endArrow=open;endFill=0;" edge="1" parent="1" source="u8pV7KjKoDz3oCQttia9-32" target="u8pV7KjKoDz3oCQttia9-35">
          <mxGeometry relative="1" as="geometry" />
        </mxCell>
        <mxCell id="u8pV7KjKoDz3oCQttia9-32" value="Войти на сайт" style="html=1;align=center;verticalAlign=top;rounded=1;absoluteArcSize=1;arcSize=10;dashed=0;whiteSpace=wrap;" vertex="1" parent="1">
          <mxGeometry x="360" y="550" width="90" height="30" as="geometry" />
        </mxCell>
        <mxCell id="u8pV7KjKoDz3oCQttia9-33" style="rounded=0;orthogonalLoop=1;jettySize=auto;html=1;entryX=0;entryY=0.5;entryDx=0;entryDy=0;endArrow=open;endFill=0;" edge="1" parent="1" source="u8pV7KjKoDz3oCQttia9-35" target="u8pV7KjKoDz3oCQttia9-30">
          <mxGeometry relative="1" as="geometry" />
        </mxCell>
        <mxCell id="u8pV7KjKoDz3oCQttia9-34" style="rounded=0;orthogonalLoop=1;jettySize=auto;html=1;endArrow=open;endFill=0;" edge="1" parent="1" source="u8pV7KjKoDz3oCQttia9-35" target="u8pV7KjKoDz3oCQttia9-37">
          <mxGeometry relative="1" as="geometry" />
        </mxCell>
        <mxCell id="u8pV7KjKoDz3oCQttia9-35" value="" style="rhombus;" vertex="1" parent="1">
          <mxGeometry x="475" y="550" width="30" height="30" as="geometry" />
        </mxCell>
        <mxCell id="u8pV7KjKoDz3oCQttia9-36" style="edgeStyle=orthogonalEdgeStyle;rounded=0;orthogonalLoop=1;jettySize=auto;html=1;endArrow=open;endFill=0;" edge="1" parent="1" source="u8pV7KjKoDz3oCQttia9-37" target="u8pV7KjKoDz3oCQttia9-48">
          <mxGeometry relative="1" as="geometry" />
        </mxCell>
        <mxCell id="u8pV7KjKoDz3oCQttia9-37" value="Просмотреть книги" style="html=1;align=center;verticalAlign=top;rounded=1;absoluteArcSize=1;arcSize=10;dashed=0;whiteSpace=wrap;" vertex="1" parent="1">
          <mxGeometry x="560" y="570" width="100" height="40" as="geometry" />
        </mxCell>
        <mxCell id="u8pV7KjKoDz3oCQttia9-38" style="edgeStyle=orthogonalEdgeStyle;rounded=0;orthogonalLoop=1;jettySize=auto;html=1;entryX=0;entryY=0.5;entryDx=0;entryDy=0;endArrow=open;endFill=0;" edge="1" parent="1" source="u8pV7KjKoDz3oCQttia9-39" target="u8pV7KjKoDz3oCQttia9-41">
          <mxGeometry relative="1" as="geometry" />
        </mxCell>
        <mxCell id="u8pV7KjKoDz3oCQttia9-39" value="Создать&lt;div&gt;отзыв&lt;/div&gt;" style="html=1;align=center;verticalAlign=top;rounded=1;absoluteArcSize=1;arcSize=10;dashed=0;whiteSpace=wrap;" vertex="1" parent="1">
          <mxGeometry x="700" y="500" width="100" height="40" as="geometry" />
        </mxCell>
        <mxCell id="u8pV7KjKoDz3oCQttia9-40" style="edgeStyle=orthogonalEdgeStyle;rounded=0;orthogonalLoop=1;jettySize=auto;html=1;endArrow=open;endFill=0;" edge="1" parent="1" source="u8pV7KjKoDz3oCQttia9-41" target="u8pV7KjKoDz3oCQttia9-45">
          <mxGeometry relative="1" as="geometry" />
        </mxCell>
        <mxCell id="u8pV7KjKoDz3oCQttia9-41" value="Посмотреть отзыв" style="html=1;align=center;verticalAlign=top;rounded=1;absoluteArcSize=1;arcSize=10;dashed=0;whiteSpace=wrap;" vertex="1" parent="1">
          <mxGeometry x="850" y="320" width="90" height="40" as="geometry" />
        </mxCell>
        <mxCell id="u8pV7KjKoDz3oCQttia9-42" style="edgeStyle=orthogonalEdgeStyle;rounded=0;orthogonalLoop=1;jettySize=auto;html=1;endArrow=open;endFill=0;" edge="1" parent="1" source="u8pV7KjKoDz3oCQttia9-45">
          <mxGeometry relative="1" as="geometry">
            <mxPoint x="1100" y="285" as="targetPoint" />
            <Array as="points">
              <mxPoint x="985" y="285" />
            </Array>
          </mxGeometry>
        </mxCell>
        <mxCell id="u8pV7KjKoDz3oCQttia9-43" value="Не одобрять его" style="edgeLabel;html=1;align=center;verticalAlign=middle;resizable=0;points=[];" connectable="0" vertex="1" parent="u8pV7KjKoDz3oCQttia9-42">
          <mxGeometry x="-0.1958" relative="1" as="geometry">
            <mxPoint y="-15" as="offset" />
          </mxGeometry>
        </mxCell>
        <mxCell id="u8pV7KjKoDz3oCQttia9-44" style="edgeStyle=orthogonalEdgeStyle;rounded=0;orthogonalLoop=1;jettySize=auto;html=1;entryX=0;entryY=0.5;entryDx=0;entryDy=0;endArrow=open;endFill=0;" edge="1" parent="1" source="u8pV7KjKoDz3oCQttia9-45" target="u8pV7KjKoDz3oCQttia9-47">
          <mxGeometry relative="1" as="geometry">
            <Array as="points">
              <mxPoint x="985" y="400" />
            </Array>
          </mxGeometry>
        </mxCell>
        <mxCell id="u8pV7KjKoDz3oCQttia9-51" value="Одобрить его" style="edgeLabel;html=1;align=center;verticalAlign=middle;resizable=0;points=[];" connectable="0" vertex="1" parent="u8pV7KjKoDz3oCQttia9-44">
          <mxGeometry x="-0.3333" y="1" relative="1" as="geometry">
            <mxPoint as="offset" />
          </mxGeometry>
        </mxCell>
        <mxCell id="u8pV7KjKoDz3oCQttia9-45" value="" style="rhombus;aspect=fixed;verticalAlign=middle;" vertex="1" parent="1">
          <mxGeometry x="975" y="330" width="20" height="20" as="geometry" />
        </mxCell>
        <mxCell id="u8pV7KjKoDz3oCQttia9-46" style="edgeStyle=orthogonalEdgeStyle;rounded=0;orthogonalLoop=1;jettySize=auto;html=1;entryX=0;entryY=0.5;entryDx=0;entryDy=0;endArrow=open;endFill=0;" edge="1" parent="1" source="u8pV7KjKoDz3oCQttia9-47" target="u8pV7KjKoDz3oCQttia9-28">
          <mxGeometry relative="1" as="geometry" />
        </mxCell>
        <mxCell id="u8pV7KjKoDz3oCQttia9-47" value="Принять отзыв" style="html=1;align=center;verticalAlign=top;rounded=1;absoluteArcSize=1;arcSize=10;dashed=0;whiteSpace=wrap;" vertex="1" parent="1">
          <mxGeometry x="1040" y="380" width="100" height="40" as="geometry" />
        </mxCell>
        <mxCell id="u8pV7KjKoDz3oCQttia9-48" value="" style="shape=sumEllipse;perimeter=ellipsePerimeter;html=1;backgroundOutline=1;" vertex="1" parent="1">
          <mxGeometry x="710" y="575" width="30" height="30" as="geometry" />
        </mxCell>
        <mxCell id="u8pV7KjKoDz3oCQttia9-49" value="" style="shape=sumEllipse;perimeter=ellipsePerimeter;html=1;backgroundOutline=1;" vertex="1" parent="1">
          <mxGeometry x="1100" y="270" width="30" height="30" as="geometry" />
        </mxCell>
        <mxCell id="u8pV7KjKoDz3oCQttia9-50" value="" style="ellipse;html=1;shape=endState;fillColor=strokeColor;" vertex="1" parent="1">
          <mxGeometry x="1360" y="513" width="30" height="30" as="geometry" />
        </mxCell>
      </root>
    </mxGraphModel>
  </diagram>
  <diagram id="mHePhyCUTUHAGmjTx2bC" name="3">
    <mxGraphModel grid="1" page="1" gridSize="10" guides="1" tooltips="1" connect="1" arrows="1" fold="1" pageScale="1" pageWidth="1920" pageHeight="1200" math="0" shadow="0">
      <root>
        <mxCell id="0" />
        <mxCell id="1" parent="0" />
        <mxCell id="MVls3wr2C4it-RQA5Myp-1" value="&lt;font face=&quot;Times New Roman, serif&quot;&gt;&lt;span style=&quot;font-size: 18.6667px;&quot;&gt;Book&lt;/span&gt;&lt;/font&gt;" style="swimlane;fontStyle=0;align=center;verticalAlign=top;childLayout=stackLayout;horizontal=1;startSize=55;horizontalStack=0;resizeParent=1;resizeParentMax=0;resizeLast=0;collapsible=0;marginBottom=0;html=1;whiteSpace=wrap;" vertex="1" parent="1">
          <mxGeometry x="600" y="370" width="140" height="223" as="geometry" />
        </mxCell>
        <mxCell id="MVls3wr2C4it-RQA5Myp-2" value="attributes" style="text;html=1;strokeColor=none;fillColor=none;align=center;verticalAlign=middle;spacingLeft=4;spacingRight=4;overflow=hidden;rotatable=0;points=[[0,0.5],[1,0.5]];portConstraint=eastwest;whiteSpace=wrap;" vertex="1" parent="MVls3wr2C4it-RQA5Myp-1">
          <mxGeometry y="55" width="140" height="20" as="geometry" />
        </mxCell>
        <mxCell id="MVls3wr2C4it-RQA5Myp-3" value="+id: int" style="text;html=1;strokeColor=none;fillColor=none;align=left;verticalAlign=middle;spacingLeft=4;spacingRight=4;overflow=hidden;rotatable=0;points=[[0,0.5],[1,0.5]];portConstraint=eastwest;whiteSpace=wrap;" vertex="1" parent="MVls3wr2C4it-RQA5Myp-1">
          <mxGeometry y="75" width="140" height="20" as="geometry" />
        </mxCell>
        <mxCell id="MVls3wr2C4it-RQA5Myp-4" value="+title: str" style="text;html=1;strokeColor=none;fillColor=none;align=left;verticalAlign=middle;spacingLeft=4;spacingRight=4;overflow=hidden;rotatable=0;points=[[0,0.5],[1,0.5]];portConstraint=eastwest;whiteSpace=wrap;" vertex="1" parent="MVls3wr2C4it-RQA5Myp-1">
          <mxGeometry y="95" width="140" height="20" as="geometry" />
        </mxCell>
        <mxCell id="MVls3wr2C4it-RQA5Myp-5" value="+description: str" style="text;html=1;strokeColor=none;fillColor=none;align=left;verticalAlign=middle;spacingLeft=4;spacingRight=4;overflow=hidden;rotatable=0;points=[[0,0.5],[1,0.5]];portConstraint=eastwest;whiteSpace=wrap;" vertex="1" parent="MVls3wr2C4it-RQA5Myp-1">
          <mxGeometry y="115" width="140" height="20" as="geometry" />
        </mxCell>
        <mxCell id="MVls3wr2C4it-RQA5Myp-6" value="+created_at: date" style="text;html=1;strokeColor=none;fillColor=none;align=left;verticalAlign=middle;spacingLeft=4;spacingRight=4;overflow=hidden;rotatable=0;points=[[0,0.5],[1,0.5]];portConstraint=eastwest;whiteSpace=wrap;" vertex="1" parent="MVls3wr2C4it-RQA5Myp-1">
          <mxGeometry y="135" width="140" height="20" as="geometry" />
        </mxCell>
        <mxCell id="MVls3wr2C4it-RQA5Myp-7" value="+updated_at: date" style="text;html=1;strokeColor=none;fillColor=none;align=left;verticalAlign=middle;spacingLeft=4;spacingRight=4;overflow=hidden;rotatable=0;points=[[0,0.5],[1,0.5]];portConstraint=eastwest;whiteSpace=wrap;" vertex="1" parent="MVls3wr2C4it-RQA5Myp-1">
          <mxGeometry y="155" width="140" height="20" as="geometry" />
        </mxCell>
        <mxCell id="MVls3wr2C4it-RQA5Myp-8" value="" style="line;strokeWidth=1;fillColor=none;align=left;verticalAlign=middle;spacingTop=-1;spacingLeft=3;spacingRight=3;rotatable=0;labelPosition=right;points=[];portConstraint=eastwest;" vertex="1" parent="MVls3wr2C4it-RQA5Myp-1">
          <mxGeometry y="175" width="140" height="8" as="geometry" />
        </mxCell>
        <mxCell id="MVls3wr2C4it-RQA5Myp-9" value="operations" style="text;html=1;strokeColor=none;fillColor=none;align=center;verticalAlign=middle;spacingLeft=4;spacingRight=4;overflow=hidden;rotatable=0;points=[[0,0.5],[1,0.5]];portConstraint=eastwest;whiteSpace=wrap;" vertex="1" parent="MVls3wr2C4it-RQA5Myp-1">
          <mxGeometry y="183" width="140" height="20" as="geometry" />
        </mxCell>
        <mxCell id="MVls3wr2C4it-RQA5Myp-10" value="+reviews(): Reviews[]" style="text;html=1;strokeColor=none;fillColor=none;align=left;verticalAlign=middle;spacingLeft=4;spacingRight=4;overflow=hidden;rotatable=0;points=[[0,0.5],[1,0.5]];portConstraint=eastwest;whiteSpace=wrap;" vertex="1" parent="MVls3wr2C4it-RQA5Myp-1">
          <mxGeometry y="203" width="140" height="20" as="geometry" />
        </mxCell>
        <mxCell id="MVls3wr2C4it-RQA5Myp-11" value="&lt;span style=&quot;font-size:14.0pt;line-height:&lt;br/&gt;107%;font-family:&amp;quot;Times New Roman&amp;quot;,&amp;quot;serif&amp;quot;;mso-fareast-font-family:Calibri;&lt;br/&gt;mso-fareast-theme-font:minor-latin;mso-ansi-language:EN-US;mso-fareast-language:&lt;br/&gt;EN-US;mso-bidi-language:AR-SA&quot; lang=&quot;EN-US&quot;&gt;Review&lt;/span&gt;" style="swimlane;fontStyle=0;align=center;verticalAlign=top;childLayout=stackLayout;horizontal=1;startSize=55;horizontalStack=0;resizeParent=1;resizeParentMax=0;resizeLast=0;collapsible=0;marginBottom=0;html=1;whiteSpace=wrap;" vertex="1" parent="1">
          <mxGeometry x="920" y="320" width="140" height="323" as="geometry" />
        </mxCell>
        <mxCell id="MVls3wr2C4it-RQA5Myp-12" value="attributes" style="text;html=1;strokeColor=none;fillColor=none;align=center;verticalAlign=middle;spacingLeft=4;spacingRight=4;overflow=hidden;rotatable=0;points=[[0,0.5],[1,0.5]];portConstraint=eastwest;whiteSpace=wrap;" vertex="1" parent="MVls3wr2C4it-RQA5Myp-11">
          <mxGeometry y="55" width="140" height="20" as="geometry" />
        </mxCell>
        <mxCell id="MVls3wr2C4it-RQA5Myp-13" value="+id: int" style="text;html=1;strokeColor=none;fillColor=none;align=left;verticalAlign=middle;spacingLeft=4;spacingRight=4;overflow=hidden;rotatable=0;points=[[0,0.5],[1,0.5]];portConstraint=eastwest;whiteSpace=wrap;" vertex="1" parent="MVls3wr2C4it-RQA5Myp-11">
          <mxGeometry y="75" width="140" height="20" as="geometry" />
        </mxCell>
        <mxCell id="MVls3wr2C4it-RQA5Myp-14" value="+user_id: int" style="text;html=1;strokeColor=none;fillColor=none;align=left;verticalAlign=middle;spacingLeft=4;spacingRight=4;overflow=hidden;rotatable=0;points=[[0,0.5],[1,0.5]];portConstraint=eastwest;whiteSpace=wrap;" vertex="1" parent="MVls3wr2C4it-RQA5Myp-11">
          <mxGeometry y="95" width="140" height="20" as="geometry" />
        </mxCell>
        <mxCell id="MVls3wr2C4it-RQA5Myp-15" value="+book_id&lt;span style=&quot;background-color: initial;&quot;&gt;: int&lt;/span&gt;" style="text;html=1;strokeColor=none;fillColor=none;align=left;verticalAlign=middle;spacingLeft=4;spacingRight=4;overflow=hidden;rotatable=0;points=[[0,0.5],[1,0.5]];portConstraint=eastwest;whiteSpace=wrap;" vertex="1" parent="MVls3wr2C4it-RQA5Myp-11">
          <mxGeometry y="115" width="140" height="20" as="geometry" />
        </mxCell>
        <mxCell id="MVls3wr2C4it-RQA5Myp-16" value="+title: str" style="text;html=1;strokeColor=none;fillColor=none;align=left;verticalAlign=middle;spacingLeft=4;spacingRight=4;overflow=hidden;rotatable=0;points=[[0,0.5],[1,0.5]];portConstraint=eastwest;whiteSpace=wrap;" vertex="1" parent="MVls3wr2C4it-RQA5Myp-11">
          <mxGeometry y="135" width="140" height="20" as="geometry" />
        </mxCell>
        <mxCell id="MVls3wr2C4it-RQA5Myp-17" value="+description: str" style="text;html=1;strokeColor=none;fillColor=none;align=left;verticalAlign=middle;spacingLeft=4;spacingRight=4;overflow=hidden;rotatable=0;points=[[0,0.5],[1,0.5]];portConstraint=eastwest;whiteSpace=wrap;" vertex="1" parent="MVls3wr2C4it-RQA5Myp-11">
          <mxGeometry y="155" width="140" height="20" as="geometry" />
        </mxCell>
        <mxCell id="MVls3wr2C4it-RQA5Myp-18" value="+rating: int" style="text;html=1;strokeColor=none;fillColor=none;align=left;verticalAlign=middle;spacingLeft=4;spacingRight=4;overflow=hidden;rotatable=0;points=[[0,0.5],[1,0.5]];portConstraint=eastwest;whiteSpace=wrap;" vertex="1" parent="MVls3wr2C4it-RQA5Myp-11">
          <mxGeometry y="175" width="140" height="20" as="geometry" />
        </mxCell>
        <mxCell id="MVls3wr2C4it-RQA5Myp-19" value="+is_published: bool" style="text;html=1;strokeColor=none;fillColor=none;align=left;verticalAlign=middle;spacingLeft=4;spacingRight=4;overflow=hidden;rotatable=0;points=[[0,0.5],[1,0.5]];portConstraint=eastwest;whiteSpace=wrap;" vertex="1" parent="MVls3wr2C4it-RQA5Myp-11">
          <mxGeometry y="195" width="140" height="20" as="geometry" />
        </mxCell>
        <mxCell id="MVls3wr2C4it-RQA5Myp-20" value="+updated_at: date" style="text;html=1;strokeColor=none;fillColor=none;align=left;verticalAlign=middle;spacingLeft=4;spacingRight=4;overflow=hidden;rotatable=0;points=[[0,0.5],[1,0.5]];portConstraint=eastwest;whiteSpace=wrap;" vertex="1" parent="MVls3wr2C4it-RQA5Myp-11">
          <mxGeometry y="215" width="140" height="20" as="geometry" />
        </mxCell>
        <mxCell id="MVls3wr2C4it-RQA5Myp-21" value="+created_at: date" style="text;html=1;strokeColor=none;fillColor=none;align=left;verticalAlign=middle;spacingLeft=4;spacingRight=4;overflow=hidden;rotatable=0;points=[[0,0.5],[1,0.5]];portConstraint=eastwest;whiteSpace=wrap;" vertex="1" parent="MVls3wr2C4it-RQA5Myp-11">
          <mxGeometry y="235" width="140" height="20" as="geometry" />
        </mxCell>
        <mxCell id="MVls3wr2C4it-RQA5Myp-22" value="" style="line;strokeWidth=1;fillColor=none;align=left;verticalAlign=middle;spacingTop=-1;spacingLeft=3;spacingRight=3;rotatable=0;labelPosition=right;points=[];portConstraint=eastwest;" vertex="1" parent="MVls3wr2C4it-RQA5Myp-11">
          <mxGeometry y="255" width="140" height="8" as="geometry" />
        </mxCell>
        <mxCell id="MVls3wr2C4it-RQA5Myp-23" value="operations" style="text;html=1;strokeColor=none;fillColor=none;align=center;verticalAlign=middle;spacingLeft=4;spacingRight=4;overflow=hidden;rotatable=0;points=[[0,0.5],[1,0.5]];portConstraint=eastwest;whiteSpace=wrap;" vertex="1" parent="MVls3wr2C4it-RQA5Myp-11">
          <mxGeometry y="263" width="140" height="20" as="geometry" />
        </mxCell>
        <mxCell id="MVls3wr2C4it-RQA5Myp-24" value="+book(): Book" style="text;html=1;strokeColor=none;fillColor=none;align=left;verticalAlign=middle;spacingLeft=4;spacingRight=4;overflow=hidden;rotatable=0;points=[[0,0.5],[1,0.5]];portConstraint=eastwest;whiteSpace=wrap;" vertex="1" parent="MVls3wr2C4it-RQA5Myp-11">
          <mxGeometry y="283" width="140" height="20" as="geometry" />
        </mxCell>
        <mxCell id="MVls3wr2C4it-RQA5Myp-25" value="+user(): User" style="text;html=1;strokeColor=none;fillColor=none;align=left;verticalAlign=middle;spacingLeft=4;spacingRight=4;overflow=hidden;rotatable=0;points=[[0,0.5],[1,0.5]];portConstraint=eastwest;whiteSpace=wrap;" vertex="1" parent="MVls3wr2C4it-RQA5Myp-11">
          <mxGeometry y="303" width="140" height="20" as="geometry" />
        </mxCell>
        <mxCell id="MVls3wr2C4it-RQA5Myp-26" value="&lt;span style=&quot;font-size:14.0pt;line-height:&lt;br/&gt;107%;font-family:&amp;quot;Times New Roman&amp;quot;,&amp;quot;serif&amp;quot;;mso-fareast-font-family:Calibri;&lt;br/&gt;mso-fareast-theme-font:minor-latin;mso-ansi-language:EN-US;mso-fareast-language:&lt;br/&gt;EN-US;mso-bidi-language:AR-SA&quot; lang=&quot;EN-US&quot;&gt;User&lt;/span&gt;" style="swimlane;fontStyle=0;align=center;verticalAlign=top;childLayout=stackLayout;horizontal=1;startSize=55;horizontalStack=0;resizeParent=1;resizeParentMax=0;resizeLast=0;collapsible=0;marginBottom=0;html=1;whiteSpace=wrap;" vertex="1" parent="1">
          <mxGeometry x="1270" y="380" width="140" height="203" as="geometry" />
        </mxCell>
        <mxCell id="MVls3wr2C4it-RQA5Myp-27" value="attributes" style="text;html=1;strokeColor=none;fillColor=none;align=center;verticalAlign=middle;spacingLeft=4;spacingRight=4;overflow=hidden;rotatable=0;points=[[0,0.5],[1,0.5]];portConstraint=eastwest;whiteSpace=wrap;" vertex="1" parent="MVls3wr2C4it-RQA5Myp-26">
          <mxGeometry y="55" width="140" height="20" as="geometry" />
        </mxCell>
        <mxCell id="MVls3wr2C4it-RQA5Myp-28" value="+id: int" style="text;html=1;strokeColor=none;fillColor=none;align=left;verticalAlign=middle;spacingLeft=4;spacingRight=4;overflow=hidden;rotatable=0;points=[[0,0.5],[1,0.5]];portConstraint=eastwest;whiteSpace=wrap;" vertex="1" parent="MVls3wr2C4it-RQA5Myp-26">
          <mxGeometry y="75" width="140" height="20" as="geometry" />
        </mxCell>
        <mxCell id="MVls3wr2C4it-RQA5Myp-29" value="+name: str" style="text;html=1;strokeColor=none;fillColor=none;align=left;verticalAlign=middle;spacingLeft=4;spacingRight=4;overflow=hidden;rotatable=0;points=[[0,0.5],[1,0.5]];portConstraint=eastwest;whiteSpace=wrap;" vertex="1" parent="MVls3wr2C4it-RQA5Myp-26">
          <mxGeometry y="95" width="140" height="20" as="geometry" />
        </mxCell>
        <mxCell id="MVls3wr2C4it-RQA5Myp-30" value="+password: str" style="text;html=1;strokeColor=none;fillColor=none;align=left;verticalAlign=middle;spacingLeft=4;spacingRight=4;overflow=hidden;rotatable=0;points=[[0,0.5],[1,0.5]];portConstraint=eastwest;whiteSpace=wrap;" vertex="1" parent="MVls3wr2C4it-RQA5Myp-26">
          <mxGeometry y="115" width="140" height="20" as="geometry" />
        </mxCell>
        <mxCell id="MVls3wr2C4it-RQA5Myp-31" value="+is_admin: bool" style="text;html=1;strokeColor=none;fillColor=none;align=left;verticalAlign=middle;spacingLeft=4;spacingRight=4;overflow=hidden;rotatable=0;points=[[0,0.5],[1,0.5]];portConstraint=eastwest;whiteSpace=wrap;" vertex="1" parent="MVls3wr2C4it-RQA5Myp-26">
          <mxGeometry y="135" width="140" height="20" as="geometry" />
        </mxCell>
        <mxCell id="MVls3wr2C4it-RQA5Myp-32" value="" style="line;strokeWidth=1;fillColor=none;align=left;verticalAlign=middle;spacingTop=-1;spacingLeft=3;spacingRight=3;rotatable=0;labelPosition=right;points=[];portConstraint=eastwest;" vertex="1" parent="MVls3wr2C4it-RQA5Myp-26">
          <mxGeometry y="155" width="140" height="8" as="geometry" />
        </mxCell>
        <mxCell id="MVls3wr2C4it-RQA5Myp-33" value="operations" style="text;html=1;strokeColor=none;fillColor=none;align=center;verticalAlign=middle;spacingLeft=4;spacingRight=4;overflow=hidden;rotatable=0;points=[[0,0.5],[1,0.5]];portConstraint=eastwest;whiteSpace=wrap;" vertex="1" parent="MVls3wr2C4it-RQA5Myp-26">
          <mxGeometry y="163" width="140" height="20" as="geometry" />
        </mxCell>
        <mxCell id="MVls3wr2C4it-RQA5Myp-34" value="+reviews(): Reviews[]" style="text;html=1;strokeColor=none;fillColor=none;align=left;verticalAlign=middle;spacingLeft=4;spacingRight=4;overflow=hidden;rotatable=0;points=[[0,0.5],[1,0.5]];portConstraint=eastwest;whiteSpace=wrap;" vertex="1" parent="MVls3wr2C4it-RQA5Myp-26">
          <mxGeometry y="183" width="140" height="20" as="geometry" />
        </mxCell>
        <mxCell id="MVls3wr2C4it-RQA5Myp-35" value="{redefines}" style="endArrow=none;html=1;rounded=0;align=center;verticalAlign=top;endFill=0;labelBackgroundColor=none;" edge="1" parent="1" source="MVls3wr2C4it-RQA5Myp-11" target="MVls3wr2C4it-RQA5Myp-26">
          <mxGeometry relative="1" as="geometry">
            <mxPoint x="1050" y="670" as="sourcePoint" />
            <mxPoint x="1230" y="670" as="targetPoint" />
          </mxGeometry>
        </mxCell>
        <mxCell id="MVls3wr2C4it-RQA5Myp-36" value="end1" style="resizable=0;html=1;align=left;verticalAlign=bottom;labelBackgroundColor=none;" connectable="0" vertex="1" parent="MVls3wr2C4it-RQA5Myp-35">
          <mxGeometry x="-1" relative="1" as="geometry" />
        </mxCell>
        <mxCell id="MVls3wr2C4it-RQA5Myp-37" value="0..1" style="resizable=0;html=1;align=left;verticalAlign=top;labelBackgroundColor=none;" connectable="0" vertex="1" parent="MVls3wr2C4it-RQA5Myp-35">
          <mxGeometry x="-1" relative="1" as="geometry" />
        </mxCell>
        <mxCell id="MVls3wr2C4it-RQA5Myp-38" value="Association1" style="resizable=0;html=1;align=right;verticalAlign=bottom;labelBackgroundColor=none;" connectable="0" vertex="1" parent="MVls3wr2C4it-RQA5Myp-35">
          <mxGeometry x="1" relative="1" as="geometry" />
        </mxCell>
        <mxCell id="MVls3wr2C4it-RQA5Myp-39" value="{modifier1}" style="resizable=0;html=1;align=right;verticalAlign=top;labelBackgroundColor=none;" connectable="0" vertex="1" parent="MVls3wr2C4it-RQA5Myp-35">
          <mxGeometry x="1" relative="1" as="geometry" />
        </mxCell>
        <mxCell id="MVls3wr2C4it-RQA5Myp-40" value="{redefines}" style="endArrow=none;html=1;rounded=0;align=center;verticalAlign=top;endFill=0;labelBackgroundColor=none;" edge="1" parent="1" source="MVls3wr2C4it-RQA5Myp-1" target="MVls3wr2C4it-RQA5Myp-11">
          <mxGeometry relative="1" as="geometry">
            <mxPoint x="810" y="610" as="sourcePoint" />
            <mxPoint x="990" y="610" as="targetPoint" />
          </mxGeometry>
        </mxCell>
        <mxCell id="MVls3wr2C4it-RQA5Myp-41" value="end1" style="resizable=0;html=1;align=left;verticalAlign=bottom;labelBackgroundColor=none;" connectable="0" vertex="1" parent="MVls3wr2C4it-RQA5Myp-40">
          <mxGeometry x="-1" relative="1" as="geometry" />
        </mxCell>
        <mxCell id="MVls3wr2C4it-RQA5Myp-42" value="0..1" style="resizable=0;html=1;align=left;verticalAlign=top;labelBackgroundColor=none;" connectable="0" vertex="1" parent="MVls3wr2C4it-RQA5Myp-40">
          <mxGeometry x="-1" relative="1" as="geometry" />
        </mxCell>
        <mxCell id="MVls3wr2C4it-RQA5Myp-43" value="Association1" style="resizable=0;html=1;align=right;verticalAlign=bottom;labelBackgroundColor=none;" connectable="0" vertex="1" parent="MVls3wr2C4it-RQA5Myp-40">
          <mxGeometry x="1" relative="1" as="geometry" />
        </mxCell>
        <mxCell id="MVls3wr2C4it-RQA5Myp-44" value="{modifier1}" style="resizable=0;html=1;align=right;verticalAlign=top;labelBackgroundColor=none;" connectable="0" vertex="1" parent="MVls3wr2C4it-RQA5Myp-40">
          <mxGeometry x="1" relative="1" as="geometry" />
        </mxCell>
      </root>
    </mxGraphModel>
  </diagram>
  <diagram id="2U-G8USmRQdpd1cs0kZa" name="4">
    <mxGraphModel grid="1" page="1" gridSize="10" guides="1" tooltips="1" connect="1" arrows="1" fold="1" pageScale="1" pageWidth="1920" pageHeight="1200" math="0" shadow="0">
      <root>
        <mxCell id="0" />
        <mxCell id="1" parent="0" />
        <mxCell id="ocTCnS_KViEFozwcy9dK-1" value="sd Авторизация пользователя" style="shape=umlFrame;whiteSpace=wrap;html=1;pointerEvents=0;recursiveResize=0;container=1;collapsible=0;width=160;" vertex="1" parent="1">
          <mxGeometry x="190" y="80" width="1000" height="1040" as="geometry" />
        </mxCell>
        <mxCell id="ocTCnS_KViEFozwcy9dK-2" value="LoginForm: View" style="shape=umlLifeline;perimeter=lifelinePerimeter;whiteSpace=wrap;html=1;container=1;dropTarget=0;collapsible=0;recursiveResize=0;outlineConnect=0;portConstraint=eastwest;newEdgeStyle={&quot;edgeStyle&quot;:&quot;elbowEdgeStyle&quot;,&quot;elbow&quot;:&quot;vertical&quot;,&quot;curved&quot;:0,&quot;rounded&quot;:0};" vertex="1" parent="ocTCnS_KViEFozwcy9dK-1">
          <mxGeometry x="40" y="80" width="100" height="560" as="geometry" />
        </mxCell>
        <mxCell id="ocTCnS_KViEFozwcy9dK-3" value=":Route" style="shape=umlLifeline;perimeter=lifelinePerimeter;whiteSpace=wrap;html=1;container=1;dropTarget=0;collapsible=0;recursiveResize=0;outlineConnect=0;portConstraint=eastwest;newEdgeStyle={&quot;edgeStyle&quot;:&quot;elbowEdgeStyle&quot;,&quot;elbow&quot;:&quot;vertical&quot;,&quot;curved&quot;:0,&quot;rounded&quot;:0};" vertex="1" parent="ocTCnS_KViEFozwcy9dK-1">
          <mxGeometry x="160" y="80" width="100" height="960" as="geometry" />
        </mxCell>
        <mxCell id="ocTCnS_KViEFozwcy9dK-4" value="" style="html=1;points=[];perimeter=orthogonalPerimeter;" vertex="1" parent="ocTCnS_KViEFozwcy9dK-1">
          <mxGeometry x="84" y="160" width="12" height="40" as="geometry" />
        </mxCell>
        <mxCell id="ocTCnS_KViEFozwcy9dK-5" style="edgeStyle=orthogonalEdgeStyle;rounded=0;orthogonalLoop=1;jettySize=auto;html=1;endArrow=block;endFill=1;entryX=-0.012;entryY=0.083;entryDx=0;entryDy=0;entryPerimeter=0;" edge="1" parent="ocTCnS_KViEFozwcy9dK-1" source="ocTCnS_KViEFozwcy9dK-7" target="ocTCnS_KViEFozwcy9dK-14">
          <mxGeometry relative="1" as="geometry" />
        </mxCell>
        <mxCell id="ocTCnS_KViEFozwcy9dK-6" value="login($request)" style="edgeLabel;html=1;align=center;verticalAlign=middle;resizable=0;points=[];" connectable="0" vertex="1" parent="ocTCnS_KViEFozwcy9dK-5">
          <mxGeometry x="0.0308" y="-2" relative="1" as="geometry">
            <mxPoint x="-3" y="8" as="offset" />
          </mxGeometry>
        </mxCell>
        <mxCell id="ocTCnS_KViEFozwcy9dK-7" value="" style="html=1;points=[];perimeter=orthogonalPerimeter;" vertex="1" parent="ocTCnS_KViEFozwcy9dK-1">
          <mxGeometry x="203.75" y="160" width="12.5" height="40" as="geometry" />
        </mxCell>
        <mxCell id="ocTCnS_KViEFozwcy9dK-8" value=":RegisterController" style="shape=umlLifeline;perimeter=lifelinePerimeter;whiteSpace=wrap;html=1;container=1;dropTarget=0;collapsible=0;recursiveResize=0;outlineConnect=0;portConstraint=eastwest;newEdgeStyle={&quot;edgeStyle&quot;:&quot;elbowEdgeStyle&quot;,&quot;elbow&quot;:&quot;vertical&quot;,&quot;curved&quot;:0,&quot;rounded&quot;:0};" vertex="1" parent="ocTCnS_KViEFozwcy9dK-1">
          <mxGeometry x="380" y="80" width="100" height="960" as="geometry" />
        </mxCell>
        <mxCell id="ocTCnS_KViEFozwcy9dK-9" value=":Request" style="shape=umlLifeline;perimeter=lifelinePerimeter;whiteSpace=wrap;html=1;container=1;dropTarget=0;collapsible=0;recursiveResize=0;outlineConnect=0;portConstraint=eastwest;newEdgeStyle={&quot;edgeStyle&quot;:&quot;elbowEdgeStyle&quot;,&quot;elbow&quot;:&quot;vertical&quot;,&quot;curved&quot;:0,&quot;rounded&quot;:0};" vertex="1" parent="ocTCnS_KViEFozwcy9dK-1">
          <mxGeometry x="500" y="80" width="100" height="960" as="geometry" />
        </mxCell>
        <mxCell id="ocTCnS_KViEFozwcy9dK-10" style="edgeStyle=orthogonalEdgeStyle;rounded=0;orthogonalLoop=1;jettySize=auto;html=1;endArrow=block;endFill=1;" edge="1" parent="ocTCnS_KViEFozwcy9dK-1" source="ocTCnS_KViEFozwcy9dK-4">
          <mxGeometry relative="1" as="geometry">
            <mxPoint x="204" y="180" as="targetPoint" />
          </mxGeometry>
        </mxCell>
        <mxCell id="ocTCnS_KViEFozwcy9dK-11" value="post($request)" style="edgeLabel;html=1;align=center;verticalAlign=middle;resizable=0;points=[];" connectable="0" vertex="1" parent="ocTCnS_KViEFozwcy9dK-10">
          <mxGeometry x="-0.6673" y="2" relative="1" as="geometry">
            <mxPoint x="26" y="12" as="offset" />
          </mxGeometry>
        </mxCell>
        <mxCell id="ocTCnS_KViEFozwcy9dK-12" value="" style="edgeStyle=orthogonalEdgeStyle;rounded=0;orthogonalLoop=1;jettySize=auto;html=1;endArrow=block;endFill=1;exitX=1.076;exitY=0.083;exitDx=0;exitDy=0;exitPerimeter=0;" edge="1" parent="ocTCnS_KViEFozwcy9dK-1" source="ocTCnS_KViEFozwcy9dK-14">
          <mxGeometry relative="1" as="geometry">
            <mxPoint x="540" y="180" as="targetPoint" />
          </mxGeometry>
        </mxCell>
        <mxCell id="ocTCnS_KViEFozwcy9dK-13" value="validate()" style="edgeLabel;html=1;align=center;verticalAlign=middle;resizable=0;points=[];" connectable="0" vertex="1" parent="ocTCnS_KViEFozwcy9dK-12">
          <mxGeometry x="0.0223" y="-2" relative="1" as="geometry">
            <mxPoint y="8" as="offset" />
          </mxGeometry>
        </mxCell>
        <mxCell id="ocTCnS_KViEFozwcy9dK-14" value="" style="html=1;points=[];perimeter=orthogonalPerimeter;" vertex="1" parent="ocTCnS_KViEFozwcy9dK-1">
          <mxGeometry x="423.75" y="160" width="12.5" height="240" as="geometry" />
        </mxCell>
        <mxCell id="ocTCnS_KViEFozwcy9dK-15" value="alt" style="shape=umlFrame;whiteSpace=wrap;html=1;pointerEvents=0;recursiveResize=0;container=1;collapsible=0;width=40;height=40;" vertex="1" parent="ocTCnS_KViEFozwcy9dK-1">
          <mxGeometry x="40" y="240" width="950" height="760" as="geometry" />
        </mxCell>
        <mxCell id="ocTCnS_KViEFozwcy9dK-16" value="[не валидные данные]" style="text;html=1;align=center;verticalAlign=middle;resizable=0;points=[];autosize=1;strokeColor=none;fillColor=none;" vertex="1" parent="ocTCnS_KViEFozwcy9dK-15">
          <mxGeometry x="6" y="30" width="150" height="30" as="geometry" />
        </mxCell>
        <mxCell id="ocTCnS_KViEFozwcy9dK-17" value="$errors[]" style="text;html=1;align=center;verticalAlign=middle;resizable=0;points=[];autosize=1;strokeColor=none;fillColor=none;" vertex="1" parent="ocTCnS_KViEFozwcy9dK-15">
          <mxGeometry x="400" y="30" width="70" height="30" as="geometry" />
        </mxCell>
        <mxCell id="ocTCnS_KViEFozwcy9dK-18" value="attempt()" style="text;html=1;align=center;verticalAlign=middle;resizable=0;points=[];autosize=1;strokeColor=none;fillColor=none;" vertex="1" parent="ocTCnS_KViEFozwcy9dK-15">
          <mxGeometry x="580" y="110" width="70" height="30" as="geometry" />
        </mxCell>
        <mxCell id="ocTCnS_KViEFozwcy9dK-19" value="[валидные данные]" style="text;html=1;align=center;verticalAlign=middle;resizable=0;points=[];autosize=1;strokeColor=none;fillColor=none;" vertex="1" parent="ocTCnS_KViEFozwcy9dK-15">
          <mxGeometry x="16" y="130" width="130" height="30" as="geometry" />
        </mxCell>
        <mxCell id="ocTCnS_KViEFozwcy9dK-20" value="" style="endArrow=none;startArrow=none;endFill=0;startFill=0;endSize=8;html=1;verticalAlign=bottom;dashed=1;labelBackgroundColor=none;rounded=0;" edge="1" parent="ocTCnS_KViEFozwcy9dK-1">
          <mxGeometry width="160" relative="1" as="geometry">
            <mxPoint x="39" y="358" as="sourcePoint" />
            <mxPoint x="990" y="361" as="targetPoint" />
          </mxGeometry>
        </mxCell>
        <mxCell id="ocTCnS_KViEFozwcy9dK-21" value="" style="html=1;verticalAlign=bottom;labelBackgroundColor=none;endArrow=block;endFill=1;rounded=0;" edge="1" parent="ocTCnS_KViEFozwcy9dK-1" target="ocTCnS_KViEFozwcy9dK-24">
          <mxGeometry width="160" relative="1" as="geometry">
            <mxPoint x="556.25" y="380" as="sourcePoint" />
            <mxPoint x="770" y="380" as="targetPoint" />
          </mxGeometry>
        </mxCell>
        <mxCell id="ocTCnS_KViEFozwcy9dK-22" value=":Auth" style="shape=umlLifeline;perimeter=lifelinePerimeter;whiteSpace=wrap;html=1;container=1;dropTarget=0;collapsible=0;recursiveResize=0;outlineConnect=0;portConstraint=eastwest;newEdgeStyle={&quot;edgeStyle&quot;:&quot;elbowEdgeStyle&quot;,&quot;elbow&quot;:&quot;vertical&quot;,&quot;curved&quot;:0,&quot;rounded&quot;:0};" vertex="1" parent="ocTCnS_KViEFozwcy9dK-1">
          <mxGeometry x="730" y="80" width="100" height="560" as="geometry" />
        </mxCell>
        <mxCell id="ocTCnS_KViEFozwcy9dK-23" value=":AdminMiddleware" style="shape=umlLifeline;perimeter=lifelinePerimeter;whiteSpace=wrap;html=1;container=1;dropTarget=0;collapsible=0;recursiveResize=0;outlineConnect=0;portConstraint=eastwest;newEdgeStyle={&quot;edgeStyle&quot;:&quot;elbowEdgeStyle&quot;,&quot;elbow&quot;:&quot;vertical&quot;,&quot;curved&quot;:0,&quot;rounded&quot;:0};" vertex="1" parent="ocTCnS_KViEFozwcy9dK-1">
          <mxGeometry x="850" y="80" width="100" height="960" as="geometry" />
        </mxCell>
        <mxCell id="ocTCnS_KViEFozwcy9dK-24" value="" style="html=1;points=[];perimeter=orthogonalPerimeter;" vertex="1" parent="ocTCnS_KViEFozwcy9dK-1">
          <mxGeometry x="773.75" y="360" width="12.5" height="160" as="geometry" />
        </mxCell>
        <mxCell id="ocTCnS_KViEFozwcy9dK-25" value="" style="html=1;points=[];perimeter=orthogonalPerimeter;" vertex="1" parent="ocTCnS_KViEFozwcy9dK-1">
          <mxGeometry x="543.75" y="160" width="12.5" height="320" as="geometry" />
        </mxCell>
        <mxCell id="ocTCnS_KViEFozwcy9dK-26" value="" style="endArrow=none;startArrow=open;endFill=0;startFill=0;endSize=8;html=1;verticalAlign=bottom;dashed=1;labelBackgroundColor=none;rounded=0;entryX=0.006;entryY=0.585;entryDx=0;entryDy=0;entryPerimeter=0;" edge="1" parent="ocTCnS_KViEFozwcy9dK-1" source="ocTCnS_KViEFozwcy9dK-2" target="ocTCnS_KViEFozwcy9dK-25">
          <mxGeometry width="160" relative="1" as="geometry">
            <mxPoint x="336" y="300" as="sourcePoint" />
            <mxPoint x="496" y="300" as="targetPoint" />
          </mxGeometry>
        </mxCell>
        <mxCell id="ocTCnS_KViEFozwcy9dK-27" value="Opt" style="shape=umlFrame;whiteSpace=wrap;html=1;pointerEvents=0;recursiveResize=0;container=1;collapsible=0;width=60;height=40;" vertex="1" parent="ocTCnS_KViEFozwcy9dK-1">
          <mxGeometry x="480" y="400" width="480" height="640" as="geometry" />
        </mxCell>
        <mxCell id="ocTCnS_KViEFozwcy9dK-28" value="user:Auth" style="shape=umlLifeline;perimeter=lifelinePerimeter;whiteSpace=wrap;html=1;container=1;dropTarget=0;collapsible=0;recursiveResize=0;outlineConnect=0;portConstraint=eastwest;newEdgeStyle={&quot;edgeStyle&quot;:&quot;elbowEdgeStyle&quot;,&quot;elbow&quot;:&quot;vertical&quot;,&quot;curved&quot;:0,&quot;rounded&quot;:0};" vertex="1" parent="ocTCnS_KViEFozwcy9dK-27">
          <mxGeometry x="130" y="80" width="100" height="560" as="geometry" />
        </mxCell>
        <mxCell id="ocTCnS_KViEFozwcy9dK-29" value="" style="html=1;verticalAlign=bottom;labelBackgroundColor=none;endArrow=none;endFill=0;rounded=0;startArrow=block;startFill=1;entryX=0.5;entryY=0.923;entryDx=0;entryDy=0;entryPerimeter=0;" edge="1" parent="ocTCnS_KViEFozwcy9dK-27">
          <mxGeometry width="160" relative="1" as="geometry">
            <mxPoint x="230" y="105" as="sourcePoint" />
            <mxPoint x="293.75" y="105.00000000000006" as="targetPoint" />
          </mxGeometry>
        </mxCell>
        <mxCell id="ocTCnS_KViEFozwcy9dK-30" value="session-&amp;gt;&lt;div&gt;regenerate()&lt;/div&gt;" style="edgeLabel;html=1;align=center;verticalAlign=middle;resizable=0;points=[];" connectable="0" vertex="1" parent="ocTCnS_KViEFozwcy9dK-29">
          <mxGeometry x="-0.1201" y="-2" relative="1" as="geometry">
            <mxPoint x="3" y="-27" as="offset" />
          </mxGeometry>
        </mxCell>
        <mxCell id="ocTCnS_KViEFozwcy9dK-31" value="" style="html=1;points=[];perimeter=orthogonalPerimeter;" vertex="1" parent="ocTCnS_KViEFozwcy9dK-27">
          <mxGeometry x="173.75" y="160" width="12.5" height="210" as="geometry" />
        </mxCell>
        <mxCell id="ocTCnS_KViEFozwcy9dK-32" value="alt" style="shape=umlFrame;whiteSpace=wrap;html=1;pointerEvents=0;recursiveResize=0;container=1;collapsible=0;width=160;" vertex="1" parent="ocTCnS_KViEFozwcy9dK-27">
          <mxGeometry x="-400" y="240" width="840" height="180" as="geometry" />
        </mxCell>
        <mxCell id="ocTCnS_KViEFozwcy9dK-33" value="" style="endArrow=none;startArrow=none;endFill=0;startFill=0;endSize=8;html=1;verticalAlign=bottom;dashed=1;labelBackgroundColor=none;rounded=0;entryX=0.996;entryY=0.498;entryDx=0;entryDy=0;entryPerimeter=0;" edge="1" parent="ocTCnS_KViEFozwcy9dK-32" target="ocTCnS_KViEFozwcy9dK-32">
          <mxGeometry width="160" relative="1" as="geometry">
            <mxPoint y="90" as="sourcePoint" />
            <mxPoint x="160" y="90" as="targetPoint" />
          </mxGeometry>
        </mxCell>
        <mxCell id="ocTCnS_KViEFozwcy9dK-34" value="[true]" style="text;html=1;align=center;verticalAlign=middle;resizable=0;points=[];autosize=1;strokeColor=none;fillColor=none;" vertex="1" parent="ocTCnS_KViEFozwcy9dK-32">
          <mxGeometry x="40" y="48" width="50" height="30" as="geometry" />
        </mxCell>
        <mxCell id="ocTCnS_KViEFozwcy9dK-35" value="[false]" style="text;html=1;align=center;verticalAlign=middle;resizable=0;points=[];autosize=1;strokeColor=none;fillColor=none;" vertex="1" parent="ocTCnS_KViEFozwcy9dK-32">
          <mxGeometry x="40" y="120" width="60" height="30" as="geometry" />
        </mxCell>
        <mxCell id="ocTCnS_KViEFozwcy9dK-36" value="" style="endArrow=none;startArrow=open;endFill=0;startFill=0;endSize=8;html=1;verticalAlign=bottom;dashed=1;labelBackgroundColor=none;rounded=0;entryX=0.006;entryY=0.585;entryDx=0;entryDy=0;entryPerimeter=0;exitX=0.9;exitY=0.092;exitDx=0;exitDy=0;exitPerimeter=0;" edge="1" parent="ocTCnS_KViEFozwcy9dK-32" source="ocTCnS_KViEFozwcy9dK-43">
          <mxGeometry width="160" relative="1" as="geometry">
            <mxPoint x="350" y="48" as="sourcePoint" />
            <mxPoint x="805" y="48" as="targetPoint" />
          </mxGeometry>
        </mxCell>
        <mxCell id="ocTCnS_KViEFozwcy9dK-37" value="redirect(&quot;/&quot;)" style="edgeLabel;html=1;align=center;verticalAlign=middle;resizable=0;points=[];" connectable="0" vertex="1" parent="ocTCnS_KViEFozwcy9dK-36">
          <mxGeometry x="0.7156" y="1" relative="1" as="geometry">
            <mxPoint x="-3" y="-12" as="offset" />
          </mxGeometry>
        </mxCell>
        <mxCell id="ocTCnS_KViEFozwcy9dK-38" value="redirect(&quot;/admin&quot;)" style="edgeLabel;html=1;align=center;verticalAlign=middle;resizable=0;points=[];" connectable="0" vertex="1" parent="ocTCnS_KViEFozwcy9dK-36">
          <mxGeometry x="0.7156" y="1" relative="1" as="geometry">
            <mxPoint x="-9" y="63" as="offset" />
          </mxGeometry>
        </mxCell>
        <mxCell id="ocTCnS_KViEFozwcy9dK-39" value="" style="endArrow=none;startArrow=open;endFill=0;startFill=0;endSize=8;html=1;verticalAlign=bottom;dashed=1;labelBackgroundColor=none;rounded=0;entryX=0.006;entryY=0.585;entryDx=0;entryDy=0;entryPerimeter=0;exitX=0.921;exitY=0.692;exitDx=0;exitDy=0;exitPerimeter=0;" edge="1" parent="ocTCnS_KViEFozwcy9dK-32" source="ocTCnS_KViEFozwcy9dK-43">
          <mxGeometry width="160" relative="1" as="geometry">
            <mxPoint x="144" y="123" as="sourcePoint" />
            <mxPoint x="814" y="120" as="targetPoint" />
          </mxGeometry>
        </mxCell>
        <mxCell id="ocTCnS_KViEFozwcy9dK-40" value="" style="html=1;points=[];perimeter=orthogonalPerimeter;" vertex="1" parent="ocTCnS_KViEFozwcy9dK-27">
          <mxGeometry x="410" y="160" width="20" height="230" as="geometry" />
        </mxCell>
        <mxCell id="ocTCnS_KViEFozwcy9dK-41" value="" style="endArrow=open;startArrow=none;endFill=0;startFill=0;endSize=8;html=1;verticalAlign=bottom;labelBackgroundColor=none;strokeWidth=1;rounded=0;exitX=1.069;exitY=0.095;exitDx=0;exitDy=0;exitPerimeter=0;" edge="1" parent="ocTCnS_KViEFozwcy9dK-1" source="ocTCnS_KViEFozwcy9dK-31">
          <mxGeometry width="160" relative="1" as="geometry">
            <mxPoint x="746" y="660" as="sourcePoint" />
            <mxPoint x="890" y="580" as="targetPoint" />
          </mxGeometry>
        </mxCell>
        <mxCell id="ocTCnS_KViEFozwcy9dK-42" value="isAdmin()" style="edgeLabel;html=1;align=center;verticalAlign=middle;resizable=0;points=[];" connectable="0" vertex="1" parent="ocTCnS_KViEFozwcy9dK-41">
          <mxGeometry x="0.3353" y="2" relative="1" as="geometry">
            <mxPoint y="-8" as="offset" />
          </mxGeometry>
        </mxCell>
        <mxCell id="ocTCnS_KViEFozwcy9dK-43" value="" style="html=1;points=[];perimeter=orthogonalPerimeter;" vertex="1" parent="ocTCnS_KViEFozwcy9dK-1">
          <mxGeometry x="203.75" y="680" width="12.5" height="120" as="geometry" />
        </mxCell>
      </root>
    </mxGraphModel>
  </diagram>
</mxfile>
